<svg width="10" height="13" viewBox="0 0 10 13" fill="none" xmlns="http://www.w3.org/2000/svg">
<path d="M5 6.5C5.34 6.5 5.63988 6.37012 5.87988 6.12012C6.12988 5.86012 6.25 5.55995 6.25 5.19995C6.25 4.83995 6.12988 4.54003 5.87988 4.28003C5.63988 4.03003 5.34 3.8999 5 3.8999C4.66 3.8999 4.36012 4.03003 4.12012 4.28003C3.87012 4.54003 3.75 4.83995 3.75 5.19995C3.75 5.55995 3.87012 5.86012 4.12012 6.12012C4.36012 6.37012 4.66 6.5 5 6.5ZM5 13C3.32 11.52 2.06999 10.1401 1.23999 8.86011C0.40999 7.59011 0 6.41008 0 5.33008C0 3.70008 0.50001 2.40995 1.51001 1.44995C2.51001 0.479951 3.68 0 5 0C6.32 0 7.48999 0.479951 8.48999 1.44995C9.49999 2.40995 10 3.70008 10 5.33008C10 6.41008 9.59001 7.59011 8.76001 8.86011C7.93001 10.1401 6.68 11.52 5 13Z" fill="#545454"/>
</svg>
