<svg width="28" height="27" viewBox="0 0 28 27" fill="none" xmlns="http://www.w3.org/2000/svg">
<path d="M27.8966 10.1574C27.7716 9.77311 27.5356 9.43436 27.2184 9.18389C26.9012 8.93342 26.517 8.78243 26.1141 8.74995L18.7391 8.15495L15.8916 1.2687C15.7376 0.89347 15.4755 0.572509 15.1386 0.346621C14.8018 0.120733 14.4053 0.00012207 13.9997 0.00012207C13.5941 0.00012207 13.1977 0.120733 12.8608 0.346621C12.5239 0.572509 12.2619 0.89347 12.1079 1.2687L9.26286 8.1537L1.88411 8.74995C1.48058 8.78408 1.09609 8.93653 0.778825 9.18821C0.461557 9.43988 0.225614 9.77959 0.100558 10.1648C-0.0244977 10.5499 -0.0331049 10.9635 0.0758146 11.3535C0.184734 11.7436 0.406337 12.0928 0.712858 12.3574L6.33786 17.2112L4.62411 24.4687C4.52826 24.863 4.55173 25.2769 4.69153 25.6578C4.83133 26.0387 5.08116 26.3695 5.40931 26.6082C5.73745 26.8468 6.12911 26.9826 6.53458 26.9983C6.94004 27.014 7.34102 26.9088 7.68661 26.6962L13.9991 22.8112L20.3154 26.6962C20.6611 26.9063 21.0612 27.0094 21.4654 26.9926C21.8696 26.9757 22.2598 26.8397 22.5869 26.6015C22.9139 26.3634 23.1631 26.0338 23.3032 25.6542C23.4433 25.2747 23.468 24.8622 23.3741 24.4687L21.6541 17.2099L27.2791 12.3562C27.5881 12.092 27.8117 11.742 27.9217 11.3506C28.0316 10.9591 28.0229 10.5439 27.8966 10.1574ZM25.9791 10.8412L19.8916 16.0912C19.7528 16.2109 19.6495 16.3664 19.5931 16.5407C19.5366 16.7151 19.5292 16.9016 19.5716 17.0799L21.4316 24.9299C21.4364 24.9408 21.4369 24.953 21.4329 24.9642C21.429 24.9753 21.4209 24.9846 21.4104 24.9899C21.3879 25.0074 21.3816 25.0037 21.3629 24.9899L14.5229 20.7837C14.3653 20.6868 14.184 20.6356 13.9991 20.6356C13.8142 20.6356 13.6329 20.6868 13.4754 20.7837L6.63536 24.9924C6.61661 25.0037 6.61161 25.0074 6.58786 24.9924C6.57731 24.9871 6.56922 24.9778 6.56527 24.9667C6.56132 24.9555 6.5618 24.9433 6.56661 24.9324L8.42661 17.0824C8.469 16.9041 8.46157 16.7176 8.40514 16.5432C8.3487 16.3689 8.24543 16.2134 8.10661 16.0937L2.01911 10.8437C2.00411 10.8312 1.99036 10.8199 2.00286 10.7812C2.01536 10.7424 2.02536 10.7474 2.04411 10.7449L10.0341 10.0999C10.2174 10.0842 10.3927 10.0183 10.5409 9.90933C10.6891 9.80038 10.8044 9.65267 10.8741 9.48245L13.9516 2.0312C13.9616 2.00995 13.9654 1.99995 13.9954 1.99995C14.0254 1.99995 14.0291 2.00995 14.0391 2.0312L17.1241 9.48245C17.1944 9.65274 17.3105 9.80029 17.4593 9.90881C17.6082 10.0173 17.7842 10.0826 17.9679 10.0974L25.9579 10.7424C25.9766 10.7424 25.9879 10.7424 25.9991 10.7787C26.0104 10.8149 25.9991 10.8287 25.9791 10.8412Z" fill="white"/>
</svg>
